<?xml version="1.0" encoding="UTF-8"?>
<!DOCTYPE svg PUBLIC "-//W3C//DTD SVG 1.1 Tiny//EN" "http://www.w3.org/Graphics/SVG/1.1/DTD/svg11-tiny.dtd">
<svg xmlns="http://www.w3.org/2000/svg" baseProfile="tiny" height="110" version="1.0" viewBox="0 0 110 110" width="110">
<circle cx="55" cy="55" r="55" style="fill:#FFaa00"/>
<circle cx="55" cy="55" r="50" style="fill:#FFdd00"/>

<g id="g4" transform="matrix(0.95,0,0,0.95,5.5,5.5)">

<g id="btnGroup">
<radialGradient cx="-102.6885" cy="59.724602" fx="-102.6885" fy="59.724602" gradientTransform="matrix(0.1875,0,0,-0.1875,39.0248,34.2958)" gradientUnits="userSpaceOnUse" id="XMLID_5_" r="619.93091">
<stop offset="0" style="stop-color:#ff9999;stop-opacity:1"/>
<stop offset="0.5" style="stop-color:#ff0000;stop-opacity:1"/>
<stop offset="1" style="stop-color:#990000;stop-opacity:1"/>
</radialGradient>
<circle cx="52.299999" cy="51.599998" r="48.5" style="fill:url(#XMLID_5_)"/>

<linearGradient gradientTransform="matrix(0.1875,0,0,-0.1875,39.0248,34.2958)" gradientUnits="userSpaceOnUse" id="XMLID_7_" x1="-118.0527" x2="280.0462" y1="-117.7793" y2="-117.7793">
<stop offset="0" style="stop-color:#aa0000;stop-opacity:1"/>
<stop offset="1" style="stop-color:#663333;stop-opacity:1"/>
</linearGradient>
<linearGradient gradientTransform="translate(53.8711,21.5005)" gradientUnits="userSpaceOnUse" id="XMLID_8_" x1="-27.415001" x2="28.246599" y1="62.7686" y2="7.1069002">
<stop offset="0" style="stop-color:#c4c4c4;stop-opacity:1"/>
<stop offset="0.5" style="stop-color:#ffffff;stop-opacity:1"/>
<stop offset="1" style="stop-color:#c4c4c4;stop-opacity:1"/>
</linearGradient>
<linearGradient gradientTransform="matrix(0.1875,0,0,-0.1875,39.0248,34.2958)" gradientUnits="userSpaceOnUse" id="XMLID_6_" x1="81.078102" x2="81.078102" y1="160.08501" y2="-52.536301">
<stop offset="0" style="stop-color:#ffffff;stop-opacity:1"/>
<stop offset="1" style="stop-color:#ffffff;stop-opacity:0.2"/>
</linearGradient>

<path d="M 13.141,30.579 C 22.935,35.119 36.788,37.746 52.079,37.746 C 69.757,37.746 85.521,34.163 95.317,28.429 C 87.194,14.333 72.145,5.018 54.705,5.018 C 36.549,5.018 20.784,15.29 13.141,30.579 z" style="fill:url(#XMLID_6_);"/>

<g id="symbol" transform="matrix(1,0,0,1,-2,-4)">
<path d="M 77.398,23.175 L 77.398,23.175 L 77.398,23.175 M 73.815,24.607 L 57.333,41.091 C 56.854,41.568 56.377,41.805 55.897,41.805 L 55.897,41.805 C 55.42,41.805 54.704,41.568 54.463,41.091 L 38.222,24.845 C 36.311,22.935 32.966,22.935 31.055,24.845 L 22.216,33.445 C 21.261,34.401 20.784,35.595 20.784,37.028 C 20.784,38.463 21.261,39.657 22.216,40.611 L 38.461,56.858 C 39.417,57.815 39.417,59.008 38.461,59.962 L 22.216,76.206 C 21.261,77.162 20.784,78.355 20.784,79.789 C 20.784,81.223 21.261,82.416 22.216,83.372 L 30.816,91.973 C 31.772,92.928 32.966,93.408 34.399,93.408 C 35.833,93.408 37.027,92.929 37.982,91.973 L 54.227,75.73 C 55.182,74.773 56.376,74.773 57.332,75.73 L 73.574,91.972 C 74.529,92.927 75.723,93.407 77.157,93.407 C 78.592,93.407 79.786,92.928 80.74,91.972 L 89.342,83.371 C 90.296,82.415 90.777,81.222 90.777,79.788 C 90.777,78.354 90.298,77.161 89.342,76.205 L 73.099,59.962 C 72.621,59.483 72.381,59.008 72.381,58.527 C 72.381,58.05 72.621,57.333 73.099,57.093 L 89.343,40.85 C 90.297,39.896 90.778,38.702 90.778,37.267 C 90.778,35.832 90.299,34.638 89.343,33.684 L 80.741,25.082 C 79.787,24.128 78.593,23.649 77.158,23.649 C 75.964,23.175 74.77,23.65 73.815,24.607 z" style="fill-opacity:0.5;stroke-opacity:0.5"/>
<path d="M 75.726,21.262 L 75.726,21.262 L 75.726,21.262 M 72.143,22.694 L 55.898,38.94 C 55.421,39.416 54.943,39.656 54.464,39.656 L 54.464,39.656 C 53.986,39.656 53.27,39.416 53.032,38.94 L 36.788,22.694 C 34.877,20.786 31.534,20.786 29.621,22.694 L 21.02,31.296 C 19.588,32.25 19.109,33.444 19.109,34.879 C 19.109,36.314 19.588,37.508 20.544,38.462 L 36.788,54.706 C 37.744,55.662 37.744,56.855 36.788,57.812 L 20.544,74.055 C 19.589,75.249 19.109,76.444 19.109,77.879 C 19.109,79.314 19.588,80.508 20.544,81.462 L 29.144,90.065 C 30.1,91.018 31.294,91.497 32.727,91.497 C 34.16,91.497 35.354,91.018 36.31,90.065 L 52.554,73.817 C 53.509,72.862 54.703,72.862 55.658,73.817 L 71.902,90.065 C 72.859,91.018 74.053,91.497 75.486,91.497 C 76.919,91.497 78.112,91.018 79.069,90.065 L 87.669,81.462 C 88.626,80.508 89.102,79.315 89.102,77.879 C 89.102,76.443 88.626,75.249 87.669,74.295 L 71.667,57.813 C 71.187,57.334 70.948,56.856 70.948,56.378 C 70.948,55.899 71.185,55.184 71.667,54.943 L 87.908,38.701 C 88.864,37.745 89.343,36.551 89.343,35.118 C 89.343,33.683 88.864,32.489 87.908,31.535 L 79.308,22.933 C 78.351,21.979 77.158,21.498 75.724,21.498 C 74.294,21.262 73.099,21.74 72.143,22.694 z" style="fill:url(#XMLID_7_)"/>
<path d="M 66.889,56.379 C 70.233,53.035 86.24,37.027 86.24,37.027 C 86.716,36.551 87.195,35.833 87.195,34.879 C 87.195,34.163 86.956,33.444 86.24,32.731 L 77.639,24.129 C 76.445,22.935 74.77,22.935 73.576,24.129 C 73.576,24.129 57.571,40.135 54.227,43.481 C 50.881,40.135 34.876,24.129 34.876,24.129 C 33.682,22.935 32.009,22.935 30.813,24.129 L 22.213,32.731 C 21.497,33.445 21.258,34.164 21.258,34.879 C 21.258,35.594 21.497,36.314 22.213,37.027 C 22.213,37.027 38.219,53.035 41.563,56.379 C 38.219,59.723 22.213,75.731 22.213,75.731 C 21.735,76.208 21.258,76.924 21.258,77.879 C 21.258,78.596 21.497,79.315 22.213,80.027 L 30.813,88.628 C 31.292,89.107 32.008,89.582 32.963,89.582 C 33.68,89.582 34.397,89.346 35.114,88.628 C 35.114,88.628 51.119,72.622 54.463,69.277 C 57.808,72.622 73.814,88.628 73.814,88.628 C 75.008,89.822 76.681,89.822 77.877,88.628 L 86.476,80.027 C 86.955,79.549 87.433,78.593 87.433,77.879 C 87.433,77.162 87.195,76.443 86.476,75.731 C 86.476,75.729 70.473,59.723 66.889,56.379 z" style="fill:url(#XMLID_8_)"/>
</g>

</g>
</g>

</svg>
