<?xml version="1.0" encoding="UTF-8"?>
<!DOCTYPE svg PUBLIC "-//W3C//DTD SVG 1.1 Tiny//EN" "http://www.w3.org/Graphics/SVG/1.1/DTD/svg11-tiny.dtd">
<svg xmlns="http://www.w3.org/2000/svg" xmlns:xlink="http://www.w3.org/1999/xlink" baseProfile="tiny" height="135.654" viewBox="0 0 153.75 135.654" width="153.75">
<g id="g4" transform="matrix(0.95,0,0,0.95,5.5,5.5)">
<g>
<path d="M70.548,3.796L0.95,124.52c-1.266,2.275-1.266,5.063,0,7.339c1.265,2.278,3.796,3.796,6.327,3.796      h139.197c2.53,0,5.062-1.518,6.327-3.796c1.266-2.276,1.266-5.063,0-7.339L83.455,3.796C82.189,1.519,79.658,0,77.129,0      C74.599,0,71.813,1.519,70.548,3.796z" fill="#FFbbFF" stroke="#FF00FF" stroke-width="5" stroke-linecap="square" stroke-linejoin="round"/>
<linearGradient gradientTransform="matrix(1 0 0 1 25.7246 66.9731)" gradientUnits="userSpaceOnUse" id="XMLID_6_" x1="-19.6499" x2="122.1288" y1="0.854" y2="0.854">
<stop offset="0" style="stop-color:#FFD00B"/>
<stop offset="0.5" style="stop-color:#FF8B00"/>
<stop offset="1" style="stop-color:#FFD00B"/>
</linearGradient>
<path d="M77.129,6.327c-0.508,0-0.76,0.252-1.013,0.507L41.189,67.32L6.265,127.555      c-0.253,0.507-0.253,0.762,0,1.266c0.253,0.507,0.507,0.507,1.012,0.507h139.197c0.507,0,0.761-0.252,1.014-0.507      c0.253-0.504,0.253-0.759,0-1.266L78.142,6.834C77.888,6.327,77.383,6.327,77.129,6.327z" fill="url(#XMLID_6_)"/>
<g>
<linearGradient gradientTransform="matrix(1 0 0 1 -319.7402 -162.3008)" gradientUnits="userSpaceOnUse" id="XMLID_7_" x1="9.8979" x2="92.5479" y1="212.0303" y2="212.0303">
<stop offset="0" style="stop-color:#FFFFFF"/>
<stop offset="1" style="stop-color:#FFCF03"/>
</linearGradient>
<path d="M43.215,68.333c0,0-3.038,5.568-7.592,13.161       c12.147,5.063,26.321,8.097,41.252,8.097c14.934,0,29.105-3.034,41.507-8.097C99.904,49.353,78.142,11.896,77.129,9.869       C75.104,13.161,43.215,68.333,43.215,68.333z" fill="url(#XMLID_7_)" fill-opacity="0.75" stroke-opacity="0.75"/>
</g>
<radialGradient cx="51.1519" cy="55.0986" fx="51.1519" fy="55.0986" gradientTransform="matrix(1 0 0 1 25.7246 66.9731)" gradientUnits="userSpaceOnUse" id="XMLID_8_" r="42.9222">
<stop offset="0" style="stop-color:#FF8500"/>
<stop offset="1" style="stop-color:#FFCE00"/>
</radialGradient>
<path d="M16.642,129.581h120.47c-14.681-9.113-36.193-14.682-60.236-14.682      C53.085,114.647,31.574,120.468,16.642,129.581z" fill="url(#XMLID_8_)"/>
<linearGradient gradientTransform="matrix(1 0 0 1 25.7246 66.9731)" gradientUnits="userSpaceOnUse" id="XMLID_9_" x1="2.3682" x2="100.1361" y1="9.8389" y2="9.8389">
<stop offset="0" style="stop-color:#FF9D00"/>
<stop offset="1" style="stop-color:#FFCF03"/>
</linearGradient>
<path d="M71.056,36.949L50.047,73.396l-21.005,36.441c-1.266,2.026-1.266,4.811,0,6.834      c1.265,2.024,3.543,3.544,5.82,3.544h84.024c2.529,0,4.809-1.266,5.822-3.544c1.266-2.023,1.266-4.808,0-6.834L82.951,36.949      c-1.267-2.023-3.545-3.541-5.822-3.541C74.599,33.66,72.32,34.926,71.056,36.949z" fill="url(#XMLID_9_)"/>
<linearGradient gradientTransform="matrix(0.375 0 0 -0.375 58.7056 72.274)" gradientUnits="userSpaceOnUse" id="XMLID_10_" x1="41.958" x2="191.1724" y1="-61.6221" y2="-210.836">
<stop offset="0" style="stop-color:#FFFFFF"/>
<stop offset="1" style="stop-color:#BBBBBB"/>
</linearGradient>
<path d="M73.585,38.471l-42.266,72.889c-0.759,1.265-0.759,2.782,0,4.048      c0.76,1.266,2.025,2.024,3.543,2.024h84.024c1.52,0,2.785-0.76,3.544-2.024c0.761-1.266,0.761-2.783,0-4.048L80.672,38.471      c-0.76-1.267-2.024-2.026-3.542-2.026C75.609,36.443,74.091,37.204,73.585,38.471z" fill="url(#XMLID_10_)"/>
<path d="M76.875,112.876c-2.531,0-4.555-2.275-4.555-5.313c0-3.037,2.024-5.316,4.555-5.316c2.783,0,4.558,2.279,4.558,5.316      C81.434,110.601,79.658,112.876,76.875,112.876L76.875,112.876z"/>
<polygon points="74.091,93.896 73.08,50.617 80.924,50.617 79.658,93.896 "/>
</g>
</g>
</svg>
