<?xml version="1.0" encoding="UTF-8"?>
<!DOCTYPE svg PUBLIC "-//W3C//DTD SVG 1.1 Tiny//EN" "http://www.w3.org/Graphics/SVG/1.1/DTD/svg11-tiny.dtd">
<svg xmlns="http://www.w3.org/2000/svg" baseProfile="tiny" height="111.801" version="1.0" viewBox="0 0 111.559 111.801" width="111.559">
<g>
<g>
<g>
<g>
<path d="M 2.149,57.096 C 2.149,87.434 26.753,111.801 56.854,111.801 C 86.955,111.801 111.558,87.194 111.558,57.096 C 111.558,26.758 86.954,2.389 56.854,2.389 C 26.756,2.151 2.149,26.758 2.149,57.096 z" style="fill-opacity:0.2;stroke-opacity:0.2"/>
</g>
</g>
<path d="M 0,54.706 C 0,85.045 24.604,109.412 54.705,109.412 C 84.809,109.412 109.409,84.805 109.409,54.706 C 109.409,24.607 85.043,0 54.705,0 C 24.604,0 0,24.607 0,54.706 z" style="fill:#006605"/>
<path d="M 54.705,0.956 C 25.083,0.956 0.955,25.083 0.955,54.706 C 0.955,84.329 25.083,108.693 54.943,108.693 C 84.565,108.693 108.931,84.566 108.931,54.706 C 108.934,24.845 84.565,0.956 54.705,0.956 z" style="fill:#095105"/>
<radialGradient cx="43.984402" cy="14.6943" fx="43.984402" fy="14.6943" gradientTransform="matrix(1,0,0,-1,10.7207,69.4004)" gradientUnits="userSpaceOnUse" id="XMLID_10_" r="51.123001">
<stop offset="0" style="stop-color:#ff9999;stop-opacity:1"/>
<stop offset="0.0056" style="stop-color:#99ffac;stop-opacity:1"/>
<stop offset="0.58429998" style="stop-color:#49e03d;stop-opacity:1"/>
<stop offset="1" style="stop-color:#028219;stop-opacity:1"/>
</radialGradient>
<circle cx="54.705002" cy="54.706001" r="51.123001" style="fill:url(#XMLID_10_)"/>
<g>
<g>
<path d="M 5.019,56.619 C 5.019,28.429 27.953,5.496 56.14,5.496 C 72.621,5.496 87.197,13.139 96.51,25.323 C 87.197,12.184 71.906,3.823 54.704,3.823 C 26.516,3.823 3.583,26.758 3.583,54.944 C 3.583,66.889 7.646,77.879 14.333,86.479 C 8.36,77.879 5.019,67.605 5.019,56.619 z" style="fill:#ffffff;fill-opacity:0.5;stroke-opacity:0.5"/>
</g>
</g>
<g style="fill-opacity:0.35;stroke-opacity:0.35">
<linearGradient gradientTransform="matrix(1,0,0,-1,-355.8398,-171.7988)" gradientUnits="userSpaceOnUse" id="XMLID_11_" x1="2.4189" x2="84.594704" y1="-193.18069" y2="-193.18069">
<stop offset="0" style="stop-color:#ffffff;stop-opacity:1"/>
<stop offset="0.0056" style="stop-color:#ffffff;stop-opacity:1"/>
<stop offset="1" style="stop-color:#aeffb4;stop-opacity:1"/>
</linearGradient>
<path d="M 13.141,30.579 C 22.935,35.119 36.788,37.746 52.079,37.746 C 69.757,37.746 85.521,34.163 95.317,28.429 C 87.194,14.333 72.145,5.018 54.705,5.018 C 36.549,5.018 20.784,15.29 13.141,30.579 z" style="fill:url(#XMLID_11_);fill-opacity:0.75;stroke-opacity:0.75"/>
</g>
<g>
<path d="M 85.05,29.485 L 82.358,25.864 C 67.717,39.37 56.114,58.053 50.186,68.916 L 37.949,41.883 L 31.575,45.036 C 40.536,66.148 50.885,87.389 51.562,88.771 L 51.598,88.851 C 60.372,64.184 70.65,44.625 85.05,29.485 z" style="fill:#060606;fill-opacity:0.2;stroke-opacity:0.2"/>
<path d="M 85.05,29.485 L 82.358,25.864 C 67.717,39.37 56.114,58.053 50.186,68.916 L 37.949,41.883 L 31.575,45.036 C 40.536,66.148 50.885,87.389 51.562,88.771 L 51.598,88.851 C 60.372,64.184 70.65,44.625 85.05,29.485 z" style="fill:none;fill-opacity:0.2;stroke:#020202;stroke-width:3;stroke-linecap:square;stroke-linejoin:round;stroke-opacity:0.2"/>
</g>
<linearGradient gradientTransform="matrix(1,0,0,-1,10.7207,69.4004)" gradientUnits="userSpaceOnUse" id="XMLID_12_" x1="22.9189" x2="69.791603" y1="-2.4912" y2="44.381599">
<stop offset="0" style="stop-color:#c6c6c6;stop-opacity:1"/>
<stop offset="0.5" style="stop-color:#ffffff;stop-opacity:1"/>
<stop offset="1" style="stop-color:#c6c6c6;stop-opacity:1"/>
</linearGradient>
<path d="M 83.05,28.485 L 80.358,24.864 C 65.717,38.37 54.114,57.053 48.186,67.916 L 35.949,40.883 L 29.575,44.036 C 38.536,65.148 48.885,86.389 49.562,87.771 L 49.598,87.851 C 58.372,63.184 68.65,43.625 83.05,28.485 z" style="fill:url(#XMLID_12_);stroke:#0a4404;stroke-width:3;stroke-linecap:square;stroke-linejoin:round"/>
</g>
</g>
  <path
     style="fill:#ffff00;fill-opacity:1;stroke:#ff2200;stroke-opacity:1"
     id="path2446"
     d="M 15.729578,8.8327608 A 6.2918315,6.1708345 0 1 1 3.1459155,8.8327608 A 6.2918315,6.1708345 0 1 1 15.729578,8.8327608 z"
     transform="translate(1.9359481,1.5089074)" />
  <path
     style="fill:#ffff00;fill-opacity:1;stroke:#ff2200;stroke-opacity:1"
     id="path3240"
     d="M 15.729578,8.8327608 A 6.2918315,6.1708345 0 1 1 3.1459155,8.8327608 A 6.2918315,6.1708345 0 1 1 15.729578,8.8327608 z"
     transform="translate(88.327633,1.5089074)" />
  <path
     style="fill:#ffff00;fill-opacity:1;stroke:#ff2200;stroke-opacity:1"
     id="path3242"
     d="M 15.729578,8.8327608 A 6.2918315,6.1708345 0 1 1 3.1459155,8.8327608 A 6.2918315,6.1708345 0 1 1 15.729578,8.8327608 z"
     transform="translate(1.9359481,90.142585)" />
  <path
     style="fill:#ffff00;fill-opacity:1;stroke:#ff2200;stroke-opacity:1"
     id="path3244"
     d="M 15.729578,8.8327608 A 6.2918315,6.1708345 0 1 1 3.1459155,8.8327608 A 6.2918315,6.1708345 0 1 1 15.729578,8.8327608 z"
     transform="translate(88.327633,90.142585)" />
</svg>
