<?xml version="1.0" encoding="UTF-8"?>
<!DOCTYPE svg PUBLIC "-//W3C//DTD SVG 1.1 Tiny//EN" "http://www.w3.org/Graphics/SVG/1.1/DTD/svg11-tiny.dtd">
<svg xmlns="http://www.w3.org/2000/svg" baseProfile="tiny" height="111.801" version="1.0" viewBox="0 0 111.559 111.801" width="111.559">
	<defs display="inherit" id="defs5">
		<linearGradient id="gr_922" x1="0" y1="0" x2="0" y2="1">
			<stop offset="0" stop-color="#ff5500"/>
			<stop offset="0.5" stop-color="#ffff00"/>
			<stop offset="1" stop-color="#ff5500"/>
		</linearGradient>
        </defs>
<g>
<g>
<g>
<path d="M 2.149,57.096 C 2.149,87.434 26.755,111.801 56.854,111.801 C 86.955,111.801 111.558,87.194 111.558,57.096 C 111.558,26.758 86.954,2.389 56.854,2.389 C 26.756,2.151 2.149,26.758 2.149,57.096 z" style="fill-opacity:0.2;stroke-opacity:0.2"/>
</g>
<path d="M 0,54.706 C 0,85.045 24.604,109.412 54.705,109.412 C 84.807,109.412 109.409,84.805 109.409,54.706 C 109.409,24.607 85.043,0 54.705,0 C 24.604,0 0,24.607 0,54.706 z" style="fill:#660000"/>
<path d="M 54.705,0.956 C 25.083,0.956 0.955,25.083 0.955,54.706 C 0.955,84.329 25.083,108.693 54.943,108.693 C 84.565,108.693 108.931,84.566 108.931,54.706 C 108.932,24.845 84.565,0.956 54.705,0.956 z" style="fill:#660000"/>
<radialGradient cx="-102.6885" cy="59.724602" fx="-102.6885" fy="59.724602" gradientTransform="matrix(0.1875,0,0,-0.1875,39.0248,34.2958)" gradientUnits="userSpaceOnUse" id="XMLID_5_" r="619.93091">
<stop offset="0" style="stop-color:#ff9999;stop-opacity:1"/>
<stop offset="0.0056" style="stop-color:#ff9999;stop-opacity:1"/>
<stop offset="0.58429998" style="stop-color:#ff0000;stop-opacity:1"/>
<stop offset="1" style="stop-color:#990000;stop-opacity:1"/>
</radialGradient>
<circle cx="54.705002" cy="54.706001" r="51.123001" style="fill:url(#XMLID_5_)"/>
<g>
<path d="M 5.017,56.619 C 5.017,28.429 27.951,5.496 56.138,5.496 C 72.621,5.496 87.195,13.139 96.51,25.323 C 87.195,12.184 71.905,3.823 54.704,3.823 C 26.516,3.823 3.583,26.758 3.583,54.944 C 3.583,66.889 7.645,77.879 14.333,86.479 C 8.36,77.879 5.017,67.605 5.017,56.619 z" style="fill:#ffffff;fill-opacity:0.5;stroke-opacity:0.5"/>
</g>
<linearGradient gradientTransform="matrix(0.1875,0,0,-0.1875,39.0248,34.2958)" gradientUnits="userSpaceOnUse" id="XMLID_6_" x1="81.078102" x2="81.078102" y1="160.08501" y2="-52.536301">
<stop offset="0" style="stop-color:#ffffff;stop-opacity:1"/>
<stop offset="0.0056" style="stop-color:#ffffff;stop-opacity:1"/>
<stop offset="1" style="stop-color:#ff5656;stop-opacity:1"/>
</linearGradient>
<path d="M 13.139,30.579 C 22.933,35.119 36.788,37.746 52.077,37.746 C 69.755,37.746 85.519,34.163 95.315,28.429 C 87.194,14.333 72.143,5.018 54.705,5.018 C 36.549,5.018 20.784,15.29 13.139,30.579 z" style="fill:url(#XMLID_6_)"/>
<g>
<g>
<g style="fill-opacity:0.2;stroke-opacity:0.2">
<path d="M 77.398,23.175 L 77.398,23.175 L 77.398,23.175 M 73.815,24.607 L 57.333,41.091 C 56.854,41.568 56.377,41.805 55.897,41.805 L 55.897,41.805 C 55.42,41.805 54.704,41.568 54.463,41.091 L 38.222,24.845 C 36.311,22.935 32.966,22.935 31.055,24.845 L 22.216,33.445 C 21.261,34.401 20.784,35.595 20.784,37.028 C 20.784,38.463 21.261,39.657 22.216,40.611 L 38.461,56.858 C 39.417,57.815 39.417,59.008 38.461,59.962 L 22.216,76.206 C 21.261,77.162 20.784,78.355 20.784,79.789 C 20.784,81.223 21.261,82.416 22.216,83.372 L 30.816,91.973 C 31.772,92.928 32.966,93.408 34.399,93.408 C 35.833,93.408 37.027,92.929 37.982,91.973 L 54.227,75.73 C 55.182,74.773 56.376,74.773 57.332,75.73 L 73.574,91.972 C 74.529,92.927 75.723,93.407 77.157,93.407 C 78.592,93.407 79.786,92.928 80.74,91.972 L 89.342,83.371 C 90.296,82.415 90.777,81.222 90.777,79.788 C 90.777,78.354 90.298,77.161 89.342,76.205 L 73.099,59.962 C 72.621,59.483 72.381,59.008 72.381,58.527 C 72.381,58.05 72.621,57.333 73.099,57.093 L 89.343,40.85 C 90.297,39.896 90.778,38.702 90.778,37.267 C 90.778,35.832 90.299,34.638 89.343,33.684 L 80.741,25.082 C 79.787,24.128 78.593,23.649 77.158,23.649 C 75.964,23.175 74.77,23.65 73.815,24.607 z"/>
</g>
</g>
<g>
<g style="fill-opacity:0.2;stroke-opacity:0.2">
<path d="M 76.444,22.935 L 76.444,22.935 L 76.444,22.935 M 72.861,24.369 L 56.617,40.61 C 56.138,41.09 55.66,41.329 55.182,41.329 L 55.182,41.329 C 54.703,41.329 53.989,41.091 53.748,40.61 L 37.506,24.369 C 35.594,22.456 32.25,22.456 30.339,24.369 L 21.739,32.968 C 20.784,33.925 20.304,35.119 20.304,36.552 C 20.304,37.985 20.783,39.179 21.739,40.135 L 37.982,56.379 C 38.937,57.333 38.937,58.527 37.982,59.483 L 21.739,75.729 C 20.784,76.684 20.304,77.878 20.304,79.313 C 20.304,80.746 20.783,81.94 21.739,82.897 L 30.339,91.496 C 31.295,92.453 32.489,92.929 33.922,92.929 C 35.355,92.929 36.549,92.453 37.505,91.496 L 53.75,75.249 C 54.705,74.295 55.898,74.295 56.854,75.249 L 73.098,91.495 C 74.055,92.452 75.249,92.928 76.682,92.928 C 78.115,92.928 79.309,92.452 80.265,91.495 L 88.865,82.896 C 89.822,81.939 90.298,80.745 90.298,79.312 C 90.298,77.877 89.822,76.683 88.865,75.728 L 72.622,59.482 C 72.143,59.006 71.904,58.527 71.904,58.05 C 71.904,57.571 72.142,56.855 72.622,56.617 L 88.865,40.371 C 89.822,39.414 90.298,38.22 90.298,36.787 C 90.298,35.355 89.822,34.161 88.865,33.204 L 80.265,24.605 C 79.309,23.648 78.115,23.172 76.682,23.172 C 75.25,22.935 73.815,23.413 72.861,24.369 z"/>
</g>
</g>
<g>
<g style="fill-opacity:0.2;stroke-opacity:0.2">
<path d="M 76.444,21.98 L 76.444,21.98 L 76.444,21.98 M 72.861,23.413 L 56.617,39.656 C 56.138,40.135 55.66,40.373 55.182,40.373 L 55.182,40.373 C 54.703,40.373 53.989,40.135 53.748,39.656 L 37.506,23.413 C 35.594,21.5 32.25,21.5 30.339,23.413 L 21.739,32.012 C 20.784,32.968 20.304,34.163 20.304,35.595 C 20.304,37.028 20.783,38.222 21.739,39.179 L 37.982,55.425 C 38.937,56.379 38.937,57.572 37.982,58.528 L 21.739,74.773 C 20.784,75.728 20.304,76.922 20.304,78.355 C 20.304,79.789 20.783,80.982 21.739,81.939 L 30.339,90.539 C 31.295,91.495 32.489,91.973 33.922,91.973 C 35.355,91.973 36.549,91.495 37.505,90.539 L 53.75,74.295 C 54.705,73.341 55.898,73.341 56.854,74.295 L 73.098,90.539 C 74.055,91.495 75.249,91.973 76.682,91.973 C 78.115,91.973 79.309,91.495 80.265,90.539 L 88.865,81.939 C 89.822,80.982 90.298,79.789 90.298,78.355 C 90.298,76.922 89.822,75.728 88.865,74.773 L 72.622,58.527 C 72.143,58.05 71.904,57.572 71.904,57.093 C 71.904,56.617 72.142,55.899 72.622,55.66 L 88.865,39.414 C 89.822,38.46 90.298,37.266 90.298,35.831 C 90.298,34.398 89.822,33.204 88.865,32.248 L 80.265,23.648 C 79.309,22.692 78.115,22.216 76.682,22.216 C 75.25,22.219 73.815,22.456 72.861,23.413 z"/>
</g>
</g>
<linearGradient gradientTransform="matrix(0.1875,0,0,-0.1875,39.0248,34.2958)" gradientUnits="userSpaceOnUse" id="XMLID_7_" x1="-118.0527" x2="280.0462" y1="-117.7793" y2="-117.7793">
<stop offset="0" style="stop-color:#aa0000;stop-opacity:1"/>
<stop offset="0.0056" style="stop-color:#aa0000;stop-opacity:1"/>
<stop offset="1" style="stop-color:#663333;stop-opacity:1"/>
</linearGradient>
<path d="M 75.726,21.262 L 75.726,21.262 L 75.726,21.262 M 72.143,22.694 L 55.898,38.94 C 55.421,39.416 54.943,39.656 54.464,39.656 L 54.464,39.656 C 53.986,39.656 53.27,39.416 53.032,38.94 L 36.788,22.694 C 34.877,20.786 31.534,20.786 29.621,22.694 L 21.02,31.296 C 19.588,32.25 19.109,33.444 19.109,34.879 C 19.109,36.314 19.588,37.508 20.544,38.462 L 36.788,54.706 C 37.744,55.662 37.744,56.855 36.788,57.812 L 20.544,74.055 C 19.589,75.249 19.109,76.444 19.109,77.879 C 19.109,79.314 19.588,80.508 20.544,81.462 L 29.144,90.065 C 30.1,91.018 31.294,91.497 32.727,91.497 C 34.16,91.497 35.354,91.018 36.31,90.065 L 52.554,73.817 C 53.509,72.862 54.703,72.862 55.658,73.817 L 71.902,90.065 C 72.859,91.018 74.053,91.497 75.486,91.497 C 76.919,91.497 78.112,91.018 79.069,90.065 L 87.669,81.462 C 88.626,80.508 89.102,79.315 89.102,77.879 C 89.102,76.443 88.626,75.249 87.669,74.295 L 71.667,57.813 C 71.187,57.334 70.948,56.856 70.948,56.378 C 70.948,55.899 71.185,55.184 71.667,54.943 L 87.908,38.701 C 88.864,37.745 89.343,36.551 89.343,35.118 C 89.343,33.683 88.864,32.489 87.908,31.535 L 79.308,22.933 C 78.351,21.979 77.158,21.498 75.724,21.498 C 74.294,21.262 73.099,21.74 72.143,22.694 z" style="fill:url(#XMLID_7_)"/>
<linearGradient gradientTransform="translate(53.8711,21.5005)" gradientUnits="userSpaceOnUse" id="XMLID_8_" x1="-27.415001" x2="28.246599" y1="62.7686" y2="7.1069002">
<stop offset="0" style="stop-color:#c4c4c4;stop-opacity:1"/>
<stop offset="0.0056" style="stop-color:#c4c4c4;stop-opacity:1"/>
<stop offset="0.5" style="stop-color:#ffffff;stop-opacity:1"/>
<stop offset="1" style="stop-color:#c4c4c4;stop-opacity:1"/>
</linearGradient>
<path d="M 66.889,56.379 C 70.233,53.035 86.24,37.027 86.24,37.027 C 86.716,36.551 87.195,35.833 87.195,34.879 C 87.195,34.163 86.956,33.444 86.24,32.731 L 77.639,24.129 C 76.445,22.935 74.77,22.935 73.576,24.129 C 73.576,24.129 57.571,40.135 54.227,43.481 C 50.881,40.135 34.876,24.129 34.876,24.129 C 33.682,22.935 32.009,22.935 30.813,24.129 L 22.213,32.731 C 21.497,33.445 21.258,34.164 21.258,34.879 C 21.258,35.594 21.497,36.314 22.213,37.027 C 22.213,37.027 38.219,53.035 41.563,56.379 C 38.219,59.723 22.213,75.731 22.213,75.731 C 21.735,76.208 21.258,76.924 21.258,77.879 C 21.258,78.596 21.497,79.315 22.213,80.027 L 30.813,88.628 C 31.292,89.107 32.008,89.582 32.963,89.582 C 33.68,89.582 34.397,89.346 35.114,88.628 C 35.114,88.628 51.119,72.622 54.463,69.277 C 57.808,72.622 73.814,88.628 73.814,88.628 C 75.008,89.822 76.681,89.822 77.877,88.628 L 86.476,80.027 C 86.955,79.549 87.433,78.593 87.433,77.879 C 87.433,77.162 87.195,76.443 86.476,75.731 C 86.476,75.729 70.473,59.723 66.889,56.379 z" style="fill:url(#XMLID_8_)"/>
</g>
</g>
</g>
  <path
     style="font-size:45.92567825px;font-style:italic;font-variant:normal;font-weight:900;font-stretch:normal;text-align:start;line-height:125%;writing-mode:lr-tb;text-anchor:start;stroke:#000000;stroke-width:2px;stroke-linecap:butt;stroke-linejoin:miter;stroke-opacity:1;font-family:Cooper Std Black;-inkscape-font-specification:Cooper Std Black Heavy Italic"
fill="url(#gr_922)"
     d="M 59.508987,70.006076 C 60.770789,70.281644 61.894859,70.596559 62.8812,70.950821 C 63.867446,71.305116 64.38793,72.24986 64.442654,73.785055 C 64.16268,75.91293 63.042984,77.168215 61.083562,77.550913 C 59.124047,77.93363 58.004351,79.477586 57.72447,82.182785 C 57.846895,84.405981 58.943264,85.942971 61.01358,86.793759 C 63.083804,87.644548 65.393177,88.116272 67.941706,88.208933 C 70.490128,88.301592 72.542905,88.322328 74.100043,88.271139 C 76.025757,88.330752 78.717434,88.293169 82.175083,88.15839 C 85.632597,88.02361 88.798589,87.433955 91.67307,86.389422 C 94.547398,85.344892 96.072725,83.487804 96.249056,80.818154 C 96.189361,78.633845 95.667095,77.334012 94.682256,76.91865 C 93.697257,76.50331 92.607367,76.012147 91.412583,75.445159 C 90.217645,74.878195 89.275494,73.275113 88.586128,70.635906 C 87.946506,67.804284 86.962883,63.460277 85.635258,57.603871 C 84.30749,51.747525 82.903981,45.832834 81.424727,39.859778 C 79.945339,33.886818 78.658467,29.309542 77.564107,26.127937 C 76.140368,21.835101 74.185274,18.480386 71.698817,16.063782 C 69.212246,13.64732 65.60385,12.418279 60.873618,12.376654 C 57.617268,12.278319 54.97111,12.790056 52.935139,13.911866 C 50.899091,15.033824 49.486349,17.356318 48.69691,20.879356 C 46.577762,29.277144 42.890636,37.884808 37.635523,46.702375 C 32.380364,55.520024 27.249881,63.917745 22.24406,71.895565 C 20.705119,74.234111 19.210895,75.657058 17.761382,76.164409 C 16.311863,76.671783 15.113114,77.138323 14.165131,77.564032 C 13.217149,77.98976 12.725987,79.249419 12.691643,81.343012 C 12.916896,84.662742 14.460853,86.683444 17.323516,87.405123 C 20.186175,88.126802 23.016032,88.415474 25.813096,88.271139 C 34.479795,88.207718 39.977679,87.494787 42.306761,86.132341 C 44.63579,84.769899 45.646141,83.138466 45.337818,81.23804 C 45.08848,78.692486 44.09125,77.301613 42.346125,77.065416 C 40.600945,76.82924 39.603716,76.015712 39.354435,74.624828 C 39.280056,73.264582 39.638709,72.206118 40.430394,71.449433 C 41.222029,70.692779 42.892826,70.211661 45.44279,70.006076 L 59.508987,70.006076 z M 50.796342,57.934339 C 49.976214,57.84033 49.254534,57.661003 48.6313,57.396357 C 48.007999,57.131772 47.679964,56.71626 47.647194,56.149822 C 47.700943,55.394964 48.223209,53.77892 49.213992,51.301687 C 50.204707,48.824526 51.341251,46.446467 52.623626,44.167503 C 53.905925,41.888626 55.011366,40.669143 55.939952,40.50905 C 56.565202,40.610829 57.274082,41.562053 58.066596,43.362723 C 58.859023,45.163482 59.552353,47.203299 60.14659,49.482181 C 60.740735,51.761138 61.053059,53.668768 61.083562,55.205077 C 61.129441,56.040508 60.932619,56.679085 60.493096,57.120809 C 60.053481,57.562594 59.095616,57.833771 57.619498,57.934339 L 50.796342,57.934339 z"
     id="text2467" />
</svg>
