<?xml version="1.0" encoding="UTF-8"?>
<!DOCTYPE svg PUBLIC "-//W3C//DTD SVG 1.1 Tiny//EN" "http://www.w3.org/Graphics/SVG/1.1/DTD/svg11-tiny.dtd">
<svg xmlns="http://www.w3.org/2000/svg" baseProfile="tiny" height="111.801" version="1.0" viewBox="0 0 111.559 111.801" width="111.559">
	<defs display="inherit" id="defs5">
		<linearGradient id="gr_922" x1="0" y1="0" x2="0" y2="1">
			<stop offset="0" stop-color="#ff5500"/>
			<stop offset="0.5" stop-color="#ffff00"/>
			<stop offset="1" stop-color="#ff5500"/>
		</linearGradient>
        </defs>
<g>
<g>
<g>
<g>
<path d="M 2.149,57.096 C 2.149,87.434 26.753,111.801 56.854,111.801 C 86.955,111.801 111.558,87.194 111.558,57.096 C 111.558,26.758 86.954,2.389 56.854,2.389 C 26.756,2.151 2.149,26.758 2.149,57.096 z" style="fill-opacity:0.2;stroke-opacity:0.2"/>
</g>
</g>
<path d="M 0,54.706 C 0,85.045 24.604,109.412 54.705,109.412 C 84.809,109.412 109.409,84.805 109.409,54.706 C 109.409,24.607 85.043,0 54.705,0 C 24.604,0 0,24.607 0,54.706 z" style="fill:#006605"/>
<path d="M 54.705,0.956 C 25.083,0.956 0.955,25.083 0.955,54.706 C 0.955,84.329 25.083,108.693 54.943,108.693 C 84.565,108.693 108.931,84.566 108.931,54.706 C 108.934,24.845 84.565,0.956 54.705,0.956 z" style="fill:#095105"/>
<radialGradient cx="43.984402" cy="14.6943" fx="43.984402" fy="14.6943" gradientTransform="matrix(1,0,0,-1,10.7207,69.4004)" gradientUnits="userSpaceOnUse" id="XMLID_10_" r="51.123001">
<stop offset="0" style="stop-color:#ff9999;stop-opacity:1"/>
<stop offset="0.0056" style="stop-color:#99ffac;stop-opacity:1"/>
<stop offset="0.58429998" style="stop-color:#49e03d;stop-opacity:1"/>
<stop offset="1" style="stop-color:#028219;stop-opacity:1"/>
</radialGradient>
<circle cx="54.705002" cy="54.706001" r="51.123001" style="fill:url(#XMLID_10_)"/>
<g>
<g>
<path d="M 5.019,56.619 C 5.019,28.429 27.953,5.496 56.14,5.496 C 72.621,5.496 87.197,13.139 96.51,25.323 C 87.197,12.184 71.906,3.823 54.704,3.823 C 26.516,3.823 3.583,26.758 3.583,54.944 C 3.583,66.889 7.646,77.879 14.333,86.479 C 8.36,77.879 5.019,67.605 5.019,56.619 z" style="fill:#ffffff;fill-opacity:0.5;stroke-opacity:0.5"/>
</g>
</g>
<g style="fill-opacity:0.35;stroke-opacity:0.35">
<linearGradient gradientTransform="matrix(1,0,0,-1,-355.8398,-171.7988)" gradientUnits="userSpaceOnUse" id="XMLID_11_" x1="2.4189" x2="84.594704" y1="-193.18069" y2="-193.18069">
<stop offset="0" style="stop-color:#ffffff;stop-opacity:1"/>
<stop offset="0.0056" style="stop-color:#ffffff;stop-opacity:1"/>
<stop offset="1" style="stop-color:#aeffb4;stop-opacity:1"/>
</linearGradient>
<path d="M 13.141,30.579 C 22.935,35.119 36.788,37.746 52.079,37.746 C 69.757,37.746 85.521,34.163 95.317,28.429 C 87.194,14.333 72.145,5.018 54.705,5.018 C 36.549,5.018 20.784,15.29 13.141,30.579 z" style="fill:url(#XMLID_11_);fill-opacity:0.75;stroke-opacity:0.75"/>
</g>
<g>
<path d="M 85.05,29.485 L 82.358,25.864 C 67.717,39.37 56.114,58.053 50.186,68.916 L 37.949,41.883 L 31.575,45.036 C 40.536,66.148 50.885,87.389 51.562,88.771 L 51.598,88.851 C 60.372,64.184 70.65,44.625 85.05,29.485 z" style="fill:#060606;fill-opacity:0.2;stroke-opacity:0.2"/>
<path d="M 85.05,29.485 L 82.358,25.864 C 67.717,39.37 56.114,58.053 50.186,68.916 L 37.949,41.883 L 31.575,45.036 C 40.536,66.148 50.885,87.389 51.562,88.771 L 51.598,88.851 C 60.372,64.184 70.65,44.625 85.05,29.485 z" style="fill:none;fill-opacity:0.2;stroke:#020202;stroke-width:3;stroke-linecap:square;stroke-linejoin:round;stroke-opacity:0.2"/>
</g>
<linearGradient gradientTransform="matrix(1,0,0,-1,10.7207,69.4004)" gradientUnits="userSpaceOnUse" id="XMLID_12_" x1="22.9189" x2="69.791603" y1="-2.4912" y2="44.381599">
<stop offset="0" style="stop-color:#c6c6c6;stop-opacity:1"/>
<stop offset="0.5" style="stop-color:#ffffff;stop-opacity:1"/>
<stop offset="1" style="stop-color:#c6c6c6;stop-opacity:1"/>
</linearGradient>
<path d="M 83.05,28.485 L 80.358,24.864 C 65.717,38.37 54.114,57.053 48.186,67.916 L 35.949,40.883 L 29.575,44.036 C 38.536,65.148 48.885,86.389 49.562,87.771 L 49.598,87.851 C 58.372,63.184 68.65,43.625 83.05,28.485 z" style="fill:url(#XMLID_12_);stroke:#0a4404;stroke-width:3;stroke-linecap:square;stroke-linejoin:round"/>
</g>
</g>
  <path
     style="font-size:45.92567825px;font-style:italic;font-variant:normal;font-weight:900;font-stretch:normal;text-align:start;line-height:125%;writing-mode:lr-tb;text-anchor:start;stroke:#000000;stroke-width:2px;stroke-linecap:butt;stroke-linejoin:miter;stroke-opacity:1;font-family:Cooper Std Black;-inkscape-font-specification:Cooper Std Black Heavy Italic"
fill="url(#gr_922)"
     d="M 59.508987,70.006076 C 60.770789,70.281644 61.894859,70.596559 62.8812,70.950821 C 63.867446,71.305116 64.38793,72.24986 64.442654,73.785055 C 64.16268,75.91293 63.042984,77.168215 61.083562,77.550913 C 59.124047,77.93363 58.004351,79.477586 57.72447,82.182785 C 57.846895,84.405981 58.943264,85.942971 61.01358,86.793759 C 63.083804,87.644548 65.393177,88.116272 67.941706,88.208933 C 70.490128,88.301592 72.542905,88.322328 74.100043,88.271139 C 76.025757,88.330752 78.717434,88.293169 82.175083,88.15839 C 85.632597,88.02361 88.798589,87.433955 91.67307,86.389422 C 94.547398,85.344892 96.072725,83.487804 96.249056,80.818154 C 96.189361,78.633845 95.667095,77.334012 94.682256,76.91865 C 93.697257,76.50331 92.607367,76.012147 91.412583,75.445159 C 90.217645,74.878195 89.275494,73.275113 88.586128,70.635906 C 87.946506,67.804284 86.962883,63.460277 85.635258,57.603871 C 84.30749,51.747525 82.903981,45.832834 81.424727,39.859778 C 79.945339,33.886818 78.658467,29.309542 77.564107,26.127937 C 76.140368,21.835101 74.185274,18.480386 71.698817,16.063782 C 69.212246,13.64732 65.60385,12.418279 60.873618,12.376654 C 57.617268,12.278319 54.97111,12.790056 52.935139,13.911866 C 50.899091,15.033824 49.486349,17.356318 48.69691,20.879356 C 46.577762,29.277144 42.890636,37.884808 37.635523,46.702375 C 32.380364,55.520024 27.249881,63.917745 22.24406,71.895565 C 20.705119,74.234111 19.210895,75.657058 17.761382,76.164409 C 16.311863,76.671783 15.113114,77.138323 14.165131,77.564032 C 13.217149,77.98976 12.725987,79.249419 12.691643,81.343012 C 12.916896,84.662742 14.460853,86.683444 17.323516,87.405123 C 20.186175,88.126802 23.016032,88.415474 25.813096,88.271139 C 34.479795,88.207718 39.977679,87.494787 42.306761,86.132341 C 44.63579,84.769899 45.646141,83.138466 45.337818,81.23804 C 45.08848,78.692486 44.09125,77.301613 42.346125,77.065416 C 40.600945,76.82924 39.603716,76.015712 39.354435,74.624828 C 39.280056,73.264582 39.638709,72.206118 40.430394,71.449433 C 41.222029,70.692779 42.892826,70.211661 45.44279,70.006076 L 59.508987,70.006076 z M 50.796342,57.934339 C 49.976214,57.84033 49.254534,57.661003 48.6313,57.396357 C 48.007999,57.131772 47.679964,56.71626 47.647194,56.149822 C 47.700943,55.394964 48.223209,53.77892 49.213992,51.301687 C 50.204707,48.824526 51.341251,46.446467 52.623626,44.167503 C 53.905925,41.888626 55.011366,40.669143 55.939952,40.50905 C 56.565202,40.610829 57.274082,41.562053 58.066596,43.362723 C 58.859023,45.163482 59.552353,47.203299 60.14659,49.482181 C 60.740735,51.761138 61.053059,53.668768 61.083562,55.205077 C 61.129441,56.040508 60.932619,56.679085 60.493096,57.120809 C 60.053481,57.562594 59.095616,57.833771 57.619498,57.934339 L 50.796342,57.934339 z"
     id="text2467" />
</svg>
