<?xml version="1.0" encoding="UTF-8" standalone="no"?>
<svg
   xmlns:dc="http://purl.org/dc/elements/1.1/"
   xmlns:cc="http://creativecommons.org/ns#"
   xmlns:rdf="http://www.w3.org/1999/02/22-rdf-syntax-ns#"
   xmlns:svg="http://www.w3.org/2000/svg"
   xmlns="http://www.w3.org/2000/svg"
   xmlns:sodipodi="http://sodipodi.sourceforge.net/DTD/sodipodi-0.dtd"
   xmlns:inkscape="http://www.inkscape.org/namespaces/inkscape"
   baseProfile="tiny"
   height="107.6"
   version="1.0"
   viewBox="0 0 106.1 107.6"
   width="106.1"
   id="svg2"
   sodipodi:version="0.32"
   inkscape:version="0.46"
   sodipodi:docname="idle_auto.svg"
   inkscape:output_extension="org.inkscape.output.svg.inkscape">
  <metadata
     id="metadata112">
    <rdf:RDF>
      <cc:Work
         rdf:about="">
        <dc:format>image/svg+xml</dc:format>
        <dc:type
           rdf:resource="http://purl.org/dc/dcmitype/StillImage" />
      </cc:Work>
    </rdf:RDF>
  </metadata>
  <defs
     id="defs110">
    <inkscape:perspective
       sodipodi:type="inkscape:persp3d"
       inkscape:vp_x="0 : 53.799999 : 1"
       inkscape:vp_y="0 : 1000 : 0"
       inkscape:vp_z="106.1 : 53.799999 : 1"
       inkscape:persp3d-origin="53.049999 : 35.866666 : 1"
       id="perspective114" />
  </defs>
  <sodipodi:namedview
     inkscape:window-height="667"
     inkscape:window-width="640"
     inkscape:pageshadow="2"
     inkscape:pageopacity="0.0"
     guidetolerance="10.0"
     gridtolerance="10.0"
     objecttolerance="10.0"
     borderopacity="1.0"
     bordercolor="#666666"
     pagecolor="#ffffff"
     id="base"
     showgrid="false"
     inkscape:zoom="4.2936804"
     inkscape:cx="53.049999"
     inkscape:cy="53.799999"
     inkscape:window-x="477"
     inkscape:window-y="135"
     inkscape:current-layer="g88" />
  <g
     id="g4">
    <g
       id="g6">
      <g
         id="g8">
        <path
           d="M 1.5,55.3 C 1.5,84.1 25,107.6 53.8,107.6 C 82.6,107.6 106.1,84.1 106.1,55.3 C 106.1,26.5 82.8,3 53.8,3 C 25,3 1.5,26.5 1.5,55.3 z"
           style="fill-opacity:0.2;stroke-opacity:0.2"
           id="path10" />
      </g>
      <g
         id="g12">
        <path
           d="M 0.8,53.8 C 0.8,82.6 24.3,106.1 53.1,106.1 C 81.9,106.1 105.4,82.6 105.4,53.8 C 105.4,25 81.899,1.5 53.1,1.5 C 24.301,1.5 0.8,25 0.8,53.8 z"
           style="fill-opacity:0.2;stroke-opacity:0.2"
           id="path14" />
      </g>
      <linearGradient
         gradientTransform="matrix(0.1875,0,0,-0.1875,39.2812,39.3316)"
         gradientUnits="userSpaceOnUse"
         id="XMLID_9_"
         x1="69.433601"
         x2="69.433502"
         y1="209.7686"
         y2="-348.09619">
        <stop
           offset="0"
           style="stop-color:#0053bd;stop-opacity:1"
           id="stop17" />
        <stop
           offset="1"
           style="stop-color:#00008d;stop-opacity:1"
           id="stop19" />
      </linearGradient>
      <path
         d="M 0,52.3 C 0,81.1 23.5,104.6 52.3,104.6 C 81.1,104.6 104.6,81.1 104.6,52.3 C 104.6,23.5 81.1,0 52.3,0 C 23.5,0 0,23.5 0,52.3 z"
         style="fill:url(#XMLID_9_)"
         id="path21" />
      <radialGradient
         cx="-67.906303"
         cy="43.903801"
         fx="-67.906303"
         fy="43.903801"
         gradientTransform="matrix(0.1875,0,0,-0.1875,39.2812,39.3316)"
         gradientUnits="userSpaceOnUse"
         id="XMLID_10_"
         r="429.02371">
        <stop
           offset="0"
           style="stop-color:#006dff;stop-opacity:1"
           id="stop24" />
        <stop
           offset="0.764"
           style="stop-color:#004eed;stop-opacity:1"
           id="stop26" />
        <stop
           offset="1"
           style="stop-color:#0032cd;stop-opacity:1"
           id="stop28" />
      </radialGradient>
      <circle
         cx="52.299999"
         cy="51.599998"
         r="48.5"
         style="fill:url(#XMLID_10_)"
         id="circle30" />
      <g
         id="g32">
        <path
           d="M 9.2,56.3 C 9.2,27.8 29.5,4.7 55.2,3.2 C 54.399,3.2 53.399,3.2 52.5,3.2 C 25.5,3 3.8,24.8 3.8,51.6 C 3.8,63.9 8.5,75.3 16.1,83.9 C 11.7,75.8 9.2,66.5 9.2,56.3 z"
           style="fill:#ffffff;fill-opacity:0.36000001;stroke-opacity:0.36000001"
           id="path34" />
      </g>
      <g
         id="g36">
        <linearGradient
           gradientTransform="matrix(0.1875,0,0,-0.1875,-330.0089,-203.9682)"
           gradientUnits="userSpaceOnUse"
           id="XMLID_11_"
           x1="2039.7812"
           x2="2039.7812"
           y1="117.2939"
           y2="-113.2831">
          <stop
             offset="0"
             style="stop-color:#ffffff;stop-opacity:1"
             id="stop39" />
          <stop
             offset="1"
             style="stop-color:#006dff;stop-opacity:1"
             id="stop41" />
        </linearGradient>
        <path
           d="M 53.1,49.1 C 69.6,49.1 84.701,46.8 96.701,42.8 C 92.8,20.2 74.5,3 52.3,3 C 30.3,3 12.2,20 8.2,42.3 C 20.3,46.6 36,49.1 53.1,49.1 z"
           style="fill:url(#XMLID_11_);fill-opacity:0.5;stroke-opacity:0.5"
           id="path43" />
      </g>
      <g
         id="g45">
        <path
           d="M 52.1,19.3 L 52.9,19.8 C 53.9,20.3 62.4,25.6 70.9,32.1 C 83.1,41.6 88.6,48.3 88.6,53.6 L 88.6,53.6 C 88.6,58.9 82.9,65.6 70.9,74.9 C 62.4,81.4 53.9,86.701 52.9,87.201 L 52.1,87.701 C 51.3,88.201 50.3,88.201 49.4,87.701 C 48.6,87.201 48.1,86.4 48.1,85.4 C 48.1,85.4 48.1,72.1 48.1,70.201 C 46.1,70.201 26.4,70.201 26.4,70.201 C 24.9,70.201 23.701,69.001 23.701,67.501 L 23.701,39.3 C 23.701,37.8 24.9,36.6 26.4,36.6 C 26.4,36.6 46.1,36.6 48.1,36.6 C 48.1,34.6 48.1,21.4 48.1,21.4 C 48.1,20.4 48.6,19.6 49.4,19.1 C 50.3,18.7 51.3,18.8 52.1,19.3 z"
           style="fill-opacity:0.2;stroke-opacity:0.2"
           id="path47" />
      </g>
      <g
         id="g49">
        <path
           d="M 51.8,18.7 L 52.6,19.2 C 53.6,19.7 62.1,25 70.6,31.5 C 82.6,40.8 88.3,47.7 88.3,52.8 L 88.3,52.8 C 88.3,58.1 82.6,64.8 70.6,74.1 C 62.1,80.6 53.6,85.9 52.6,86.4 L 51.8,86.9 C 51,87.4 50,87.4 49.1,86.9 C 48.3,86.4 47.8,85.6 47.8,84.6 C 47.8,84.6 47.8,71.3 47.8,69.4 C 45.8,69.4 26.1,69.4 26.1,69.4 C 24.6,69.4 23.4,68.201 23.4,66.701 L 23.4,38.6 C 23.4,37.1 24.6,35.9 26.1,35.9 C 26.1,35.9 45.8,35.9 47.8,35.9 C 47.8,33.9 47.8,20.701 47.8,20.701 C 47.8,19.701 48.3,18.9 49.1,18.4 C 50,18 51.1,18.2 51.8,18.7 z"
           style="fill-opacity:0.2;stroke-opacity:0.2"
           id="path51" />
      </g>
      <linearGradient
         gradientTransform="matrix(-0.1875,0,0,-0.1875,63.5953,39.3316)"
         gradientUnits="userSpaceOnUse"
         id="XMLID_12_"
         x1="-31.1602"
         x2="170.9518"
         y1="32.839802"
         y2="-169.27209">
        <stop
           offset="0"
           style="stop-color:#0066cc;stop-opacity:1"
           id="stop54" />
        <stop
           offset="1"
           style="stop-color:#003399;stop-opacity:1"
           id="stop56" />
      </linearGradient>
      <path
         d="M 51.5,18 L 52.3,18.5 C 53.3,19 61.8,24.3 70.3,30.8 C 82.3,40.1 88,47 88,52.1 L 88,52.1 C 88,57.4 82.3,64.1 70.3,73.4 C 61.8,79.9 53.3,85.201 52.3,85.701 L 51.5,86.501 C 50.7,87.001 49.7,87.001 48.8,86.501 C 47.9,86.001 47.5,85.201 47.5,84.201 C 47.5,84.201 47.5,70.9 47.5,69.001 C 45.5,69.001 25.8,69.001 25.8,69.001 C 24.3,69.001 23.1,67.801 23.1,66.301 L 23.1,38.1 C 23.1,36.6 24.3,35.4 25.8,35.4 C 25.8,35.4 45.5,35.4 47.5,35.4 C 47.5,33.4 47.5,20.201 47.5,20.201 C 47.5,19.201 48,18.4 48.8,17.9 C 49.6,17.5 50.8,17.5 51.5,18 z"
         style="fill:url(#XMLID_12_)"
         id="path58" />
      <linearGradient
         gradientTransform="matrix(-0.1875,0,0,-0.1875,63.5953,39.3316)"
         gradientUnits="userSpaceOnUse"
         id="XMLID_13_"
         x1="-31.684601"
         x2="170.4046"
         y1="32.294399"
         y2="-169.79469">
        <stop
           offset="0"
           style="stop-color:#0066cc;stop-opacity:1"
           id="stop61" />
        <stop
           offset="1"
           style="stop-color:#003399;stop-opacity:1"
           id="stop63" />
      </linearGradient>
      <path
         d="M 51,19 L 51.8,19.5 L 51.8,19.5 C 52.8,20 61.3,25.3 69.6,31.8 C 81.3,40.8 86.8,47.5 86.8,52.3 C 86.8,57.1 81.1,63.8 69.6,72.8 C 61.1,79.3 52.8,84.6 51.8,85.1 L 51,85.6 C 50.5,85.9 50,85.9 49.5,85.6 C 49,85.3 48.7,84.8 48.7,84.3 C 48.7,84.3 48.7,70.5 48.7,68 C 46,68 25.899,68 25.899,68 C 25.099,68 24.399,67.3 24.399,66.5 L 24.399,38.1 C 24.399,37.3 25.099,36.6 25.899,36.6 C 25.899,36.6 46.099,36.6 48.7,36.6 C 48.7,34.1 48.7,20.3 48.7,20.3 C 48.7,19.8 49,19.3 49.5,19 C 50,18.7 50.5,18.7 51,19 z"
         style="fill:url(#XMLID_13_)"
         id="path65" />
      <linearGradient
         gradientTransform="matrix(-0.1875,0,0,-0.1875,63.5953,39.3316)"
         gradientUnits="userSpaceOnUse"
         id="XMLID_14_"
         x1="-32.087399"
         x2="170.1366"
         y1="32.196301"
         y2="-170.0276">
        <stop
           offset="0"
           style="stop-color:#ffffff;stop-opacity:1"
           id="stop68" />
        <stop
           offset="1"
           style="stop-color:#f0f0f0;stop-opacity:1"
           id="stop70" />
      </linearGradient>
      <path
         d="M 51.1,20.8 C 52.4,21.6 85.4,42.1 85.4,52.3 C 85.4,62.5 52.4,83.1 51.1,83.9 L 50.3,84.4 C 50.3,84.4 50.3,67.701 50.3,66.6 C 49.1,66.6 26,66.6 26,66.6 L 26,38.1 C 26,38.1 49.2,38.1 50.3,38.1 C 50.3,36.9 50.3,20.3 50.3,20.3 L 51.1,20.8 z"
         style="fill:url(#XMLID_14_)"
         id="path72" />
      <linearGradient
         gradientTransform="matrix(-0.1875,0,0,-0.1875,63.5953,39.3316)"
         gradientUnits="userSpaceOnUse"
         id="XMLID_15_"
         x1="-32.7407"
         x2="169.3676"
         y1="31.2773"
         y2="-170.83099">
        <stop
           offset="0"
           style="stop-color:#ffffff;stop-opacity:1"
           id="stop75" />
        <stop
           offset="1"
           style="stop-color:#dfdfdf;stop-opacity:1"
           id="stop77" />
      </linearGradient>
      <path
         d="M 83.399,52.3 C 83.399,58.6 64.899,72.6 52.099,80.8 C 52.099,76.3 52.099,64.5 52.099,64.5 C 52.099,64.5 31.099,64.5 27.799,64.5 C 27.799,61.3 27.799,43 27.799,39.8 C 31.099,39.8 52.099,39.8 52.099,39.8 C 52.099,39.8 52.099,28.1 52.099,23.5 C 65.1,32 83.399,46 83.399,52.3 z"
         style="fill:url(#XMLID_15_)"
         id="path79" />
      <linearGradient
         gradientTransform="matrix(-0.1875,0,0,-0.1875,63.5953,39.3316)"
         gradientUnits="userSpaceOnUse"
         id="XMLID_16_"
         x1="0.4434"
         x2="154.6774"
         y1="-9.6562996"
         y2="-163.8907">
        <stop
           offset="0"
           style="stop-color:#428aff;stop-opacity:1"
           id="stop82" />
        <stop
           offset="1"
           style="stop-color:#003399;stop-opacity:1"
           id="stop84" />
      </linearGradient>
      <path
         d="M 64.3,37.6 L 64.3,37.6 C 76.6,47.1 78.8,51.5 79,52.3 C 78.7,53.1 76.7,57.5 64.3,67 C 62,68.8 59.3,70.7 56.5,72.7 C 56.5,69.2 56.5,60.2 56.5,60.2 C 56.5,60.2 34.7,60.2 32.2,60.2 C 32.2,58 32.2,46.5 32.2,44.399 C 34.7,44.399 56.5,44.399 56.5,44.399 C 56.5,44.399 56.5,35.399 56.5,31.899 C 59.3,34 62,35.8 64.3,37.6 z"
         style="fill:url(#XMLID_16_)"
         id="path86" />
    </g>
  </g>
  <g
     transform="matrix(0.6276151,0,0,0.6276151,31,32.599999)"
     id="g88">
    <path
       d="M 79.4,66.9 C 78.7,68.8 77.8,70.7 76.5,72.4 C 74.9,74.6 72.8,76.4 70.3,77.9 C 65.4,80.8 59.6,81.7 54.2,80.2 C 51.4,79.5 48.9,78.3 46.7,76.6 C 44.5,75 42.7,72.9 41.2,70.4 C 38.3,65.5 37.4,59.7 38.8,54.3 C 39.5,51.6 40.7,49.1 42.4,46.8 C 44,44.6 46.1,42.8 48.6,41.3 C 53.3,38.5 59,37.7 64.2,38.9 L 95.2,12.5 C 95.1,12.4 95,12.3 94.9,12.2 C 88.7,7.5 81.7,4.2 74.1,2.2 C 59,-1.5 42.7,0.9 29.3,8.7 C 22.6,12.7 16.8,17.8 12.2,24.1 C 7.5,30.3 4.2,37.3 2.3,44.8 C -1.5,59.8 0.8,76.1 8.8,89.5 C 12.8,96.2 18,102 24.2,106.7 C 30.5,111.4 37.4,114.7 45,116.7 C 60,120.5 76.3,118.2 89.7,110.3 C 96.4,106.3 102.2,101.2 106.8,95 C 110.3,90.4 114.3,84.7 116.7,73.8 L 79.4,66.9 z"
       style="fill:#0"
       id="path90" />
    <g
       id="g92">
      <path
         d="M 63.3,33.7 L 87.5,13.8 C 69.3,2.3 46.8,3.2 31.7,13.9 L 45.5,37 C 51.5,33.4 56.5,31.9 63.3,33.7 z"
         style="fill:#ff5500"
         id="path94" />
      <path
         d="M 37.6,43.9 C 39.8,41 42.5,38.7 45.4,37 L 31.7,13.9 C 25.8,17.4 20.5,22 16.1,27.8 C 11.8,33.6 8.8,40 7.1,46.6 L 33.1,53.3 C 34,50 35.5,46.8 37.6,43.9 z"
         style="fill:#ff7700"
         id="path96" />
      <path
         d="M 33.1,53.3 L 7.1,46.6 C 3.7,60.4 5.8,75 13,87.2 L 36.1,73.6 C 32.5,67.5 31.4,60.2 33.1,53.3 z"
         style="fill:#ff9900"
         id="path98" />
      <path
         d="M 43,81.4 C 40.1,79.2 37.8,76.5 36.1,73.6 L 13,87.2 C 16.5,93.1 21.1,98.4 27,102.8 C 32.8,107.1 39.2,110.2 45.8,111.8 L 52.4,85.9 C 49.2,85.1 46,83.6 43,81.4 z"
         style="fill:#ffaa00"
         id="path100" />
      <path
         d="M 72.7,83 C 66.6,86.6 59.3,87.7 52.4,85.9 L 45.8,111.8 C 59.5,115.3 74.2,113.2 86.4,106 L 72.7,83 z"
         style="fill:#ffcc00"
         id="path102" />
      <path
         d="M 82.7,72 C 82.7,72 81.9,74.3 80.6,76.1 C 78.4,79 75.7,81.3 72.8,83 L 86.5,106.1 C 92.4,102.6 97.5,99 101.9,93.2 C 104.6,89.6 110.7,77.3 110.7,77.3 L 82.7,72 z"
         style="fill:#ffee00"
         id="path104" />
    </g>
    <polygon
       points="106.9,59.9 57.9,55.9 116,10.2 106.9,59.9 "
       id="polygon106"
       transform="matrix(0.9331029,-0.3596097,0.3596097,0.9331029,-22.163193,21.446992)" />
    <polygon
       points="108,23.4 102.4,54.1 72.2,51.6 108,23.4 "
       style="fill:#ffee00"
       id="polygon108"
       transform="matrix(0.9331029,-0.3596097,0.3596097,0.9331029,-22.163193,21.446992)" />
    <rect
       height="119.5"
       style="fill:none"
       width="119.5"
       x="0"
       y="0"
       id="rect110" />
  </g>
</svg>
