<?xml version="1.0" encoding="UTF-8"?>
<!DOCTYPE svg PUBLIC "-//W3C//DTD SVG 1.1 Tiny//EN" "http://www.w3.org/Graphics/SVG/1.1/DTD/svg11-tiny.dtd">
<svg xmlns="http://www.w3.org/2000/svg" baseProfile="tiny" height="111.801" version="1.0" viewBox="0 0 111.559 111.801" width="111.559">
<g>
<g>
<g>
<path d="M 2.149,57.096 C 2.149,87.434 26.755,111.801 56.854,111.801 C 86.955,111.801 111.558,87.194 111.558,57.096 C 111.558,26.758 86.954,2.389 56.854,2.389 C 26.756,2.151 2.149,26.758 2.149,57.096 z" style="fill-opacity:0.2;stroke-opacity:0.2"/>
</g>
<path d="M 0,54.706 C 0,85.045 24.604,109.412 54.705,109.412 C 84.807,109.412 109.409,84.805 109.409,54.706 C 109.409,24.607 85.043,0 54.705,0 C 24.604,0 0,24.607 0,54.706 z" style="fill:#660000"/>
<path d="M 54.705,0.956 C 25.083,0.956 0.955,25.083 0.955,54.706 C 0.955,84.329 25.083,108.693 54.943,108.693 C 84.565,108.693 108.931,84.566 108.931,54.706 C 108.932,24.845 84.565,0.956 54.705,0.956 z" style="fill:#660000"/>
<radialGradient cx="-102.6885" cy="59.724602" fx="-102.6885" fy="59.724602" gradientTransform="matrix(0.1875,0,0,-0.1875,39.0248,34.2958)" gradientUnits="userSpaceOnUse" id="XMLID_5_" r="619.93091">
<stop offset="0" style="stop-color:#ff9999;stop-opacity:1"/>
<stop offset="0.0056" style="stop-color:#ff9999;stop-opacity:1"/>
<stop offset="0.58429998" style="stop-color:#ff0000;stop-opacity:1"/>
<stop offset="1" style="stop-color:#990000;stop-opacity:1"/>
</radialGradient>
<circle cx="54.705002" cy="54.706001" r="51.123001" style="fill:url(#XMLID_5_)"/>
<g>
<path d="M 5.017,56.619 C 5.017,28.429 27.951,5.496 56.138,5.496 C 72.621,5.496 87.195,13.139 96.51,25.323 C 87.195,12.184 71.905,3.823 54.704,3.823 C 26.516,3.823 3.583,26.758 3.583,54.944 C 3.583,66.889 7.645,77.879 14.333,86.479 C 8.36,77.879 5.017,67.605 5.017,56.619 z" style="fill:#ffffff;fill-opacity:0.5;stroke-opacity:0.5"/>
</g>
<linearGradient gradientTransform="matrix(0.1875,0,0,-0.1875,39.0248,34.2958)" gradientUnits="userSpaceOnUse" id="XMLID_6_" x1="81.078102" x2="81.078102" y1="160.08501" y2="-52.536301">
<stop offset="0" style="stop-color:#ffffff;stop-opacity:1"/>
<stop offset="0.0056" style="stop-color:#ffffff;stop-opacity:1"/>
<stop offset="1" style="stop-color:#ff5656;stop-opacity:1"/>
</linearGradient>
<path d="M 13.139,30.579 C 22.933,35.119 36.788,37.746 52.077,37.746 C 69.755,37.746 85.519,34.163 95.315,28.429 C 87.194,14.333 72.143,5.018 54.705,5.018 C 36.549,5.018 20.784,15.29 13.139,30.579 z" style="fill:url(#XMLID_6_)"/>
<g>
<g>
<g style="fill-opacity:0.2;stroke-opacity:0.2">
<path d="M 77.398,23.175 L 77.398,23.175 L 77.398,23.175 M 73.815,24.607 L 57.333,41.091 C 56.854,41.568 56.377,41.805 55.897,41.805 L 55.897,41.805 C 55.42,41.805 54.704,41.568 54.463,41.091 L 38.222,24.845 C 36.311,22.935 32.966,22.935 31.055,24.845 L 22.216,33.445 C 21.261,34.401 20.784,35.595 20.784,37.028 C 20.784,38.463 21.261,39.657 22.216,40.611 L 38.461,56.858 C 39.417,57.815 39.417,59.008 38.461,59.962 L 22.216,76.206 C 21.261,77.162 20.784,78.355 20.784,79.789 C 20.784,81.223 21.261,82.416 22.216,83.372 L 30.816,91.973 C 31.772,92.928 32.966,93.408 34.399,93.408 C 35.833,93.408 37.027,92.929 37.982,91.973 L 54.227,75.73 C 55.182,74.773 56.376,74.773 57.332,75.73 L 73.574,91.972 C 74.529,92.927 75.723,93.407 77.157,93.407 C 78.592,93.407 79.786,92.928 80.74,91.972 L 89.342,83.371 C 90.296,82.415 90.777,81.222 90.777,79.788 C 90.777,78.354 90.298,77.161 89.342,76.205 L 73.099,59.962 C 72.621,59.483 72.381,59.008 72.381,58.527 C 72.381,58.05 72.621,57.333 73.099,57.093 L 89.343,40.85 C 90.297,39.896 90.778,38.702 90.778,37.267 C 90.778,35.832 90.299,34.638 89.343,33.684 L 80.741,25.082 C 79.787,24.128 78.593,23.649 77.158,23.649 C 75.964,23.175 74.77,23.65 73.815,24.607 z"/>
</g>
</g>
<g>
<g style="fill-opacity:0.2;stroke-opacity:0.2">
<path d="M 76.444,22.935 L 76.444,22.935 L 76.444,22.935 M 72.861,24.369 L 56.617,40.61 C 56.138,41.09 55.66,41.329 55.182,41.329 L 55.182,41.329 C 54.703,41.329 53.989,41.091 53.748,40.61 L 37.506,24.369 C 35.594,22.456 32.25,22.456 30.339,24.369 L 21.739,32.968 C 20.784,33.925 20.304,35.119 20.304,36.552 C 20.304,37.985 20.783,39.179 21.739,40.135 L 37.982,56.379 C 38.937,57.333 38.937,58.527 37.982,59.483 L 21.739,75.729 C 20.784,76.684 20.304,77.878 20.304,79.313 C 20.304,80.746 20.783,81.94 21.739,82.897 L 30.339,91.496 C 31.295,92.453 32.489,92.929 33.922,92.929 C 35.355,92.929 36.549,92.453 37.505,91.496 L 53.75,75.249 C 54.705,74.295 55.898,74.295 56.854,75.249 L 73.098,91.495 C 74.055,92.452 75.249,92.928 76.682,92.928 C 78.115,92.928 79.309,92.452 80.265,91.495 L 88.865,82.896 C 89.822,81.939 90.298,80.745 90.298,79.312 C 90.298,77.877 89.822,76.683 88.865,75.728 L 72.622,59.482 C 72.143,59.006 71.904,58.527 71.904,58.05 C 71.904,57.571 72.142,56.855 72.622,56.617 L 88.865,40.371 C 89.822,39.414 90.298,38.22 90.298,36.787 C 90.298,35.355 89.822,34.161 88.865,33.204 L 80.265,24.605 C 79.309,23.648 78.115,23.172 76.682,23.172 C 75.25,22.935 73.815,23.413 72.861,24.369 z"/>
</g>
</g>
<g>
<g style="fill-opacity:0.2;stroke-opacity:0.2">
<path d="M 76.444,21.98 L 76.444,21.98 L 76.444,21.98 M 72.861,23.413 L 56.617,39.656 C 56.138,40.135 55.66,40.373 55.182,40.373 L 55.182,40.373 C 54.703,40.373 53.989,40.135 53.748,39.656 L 37.506,23.413 C 35.594,21.5 32.25,21.5 30.339,23.413 L 21.739,32.012 C 20.784,32.968 20.304,34.163 20.304,35.595 C 20.304,37.028 20.783,38.222 21.739,39.179 L 37.982,55.425 C 38.937,56.379 38.937,57.572 37.982,58.528 L 21.739,74.773 C 20.784,75.728 20.304,76.922 20.304,78.355 C 20.304,79.789 20.783,80.982 21.739,81.939 L 30.339,90.539 C 31.295,91.495 32.489,91.973 33.922,91.973 C 35.355,91.973 36.549,91.495 37.505,90.539 L 53.75,74.295 C 54.705,73.341 55.898,73.341 56.854,74.295 L 73.098,90.539 C 74.055,91.495 75.249,91.973 76.682,91.973 C 78.115,91.973 79.309,91.495 80.265,90.539 L 88.865,81.939 C 89.822,80.982 90.298,79.789 90.298,78.355 C 90.298,76.922 89.822,75.728 88.865,74.773 L 72.622,58.527 C 72.143,58.05 71.904,57.572 71.904,57.093 C 71.904,56.617 72.142,55.899 72.622,55.66 L 88.865,39.414 C 89.822,38.46 90.298,37.266 90.298,35.831 C 90.298,34.398 89.822,33.204 88.865,32.248 L 80.265,23.648 C 79.309,22.692 78.115,22.216 76.682,22.216 C 75.25,22.219 73.815,22.456 72.861,23.413 z"/>
</g>
</g>
<linearGradient gradientTransform="matrix(0.1875,0,0,-0.1875,39.0248,34.2958)" gradientUnits="userSpaceOnUse" id="XMLID_7_" x1="-118.0527" x2="280.0462" y1="-117.7793" y2="-117.7793">
<stop offset="0" style="stop-color:#aa0000;stop-opacity:1"/>
<stop offset="0.0056" style="stop-color:#aa0000;stop-opacity:1"/>
<stop offset="1" style="stop-color:#663333;stop-opacity:1"/>
</linearGradient>
<path d="M 75.726,21.262 L 75.726,21.262 L 75.726,21.262 M 72.143,22.694 L 55.898,38.94 C 55.421,39.416 54.943,39.656 54.464,39.656 L 54.464,39.656 C 53.986,39.656 53.27,39.416 53.032,38.94 L 36.788,22.694 C 34.877,20.786 31.534,20.786 29.621,22.694 L 21.02,31.296 C 19.588,32.25 19.109,33.444 19.109,34.879 C 19.109,36.314 19.588,37.508 20.544,38.462 L 36.788,54.706 C 37.744,55.662 37.744,56.855 36.788,57.812 L 20.544,74.055 C 19.589,75.249 19.109,76.444 19.109,77.879 C 19.109,79.314 19.588,80.508 20.544,81.462 L 29.144,90.065 C 30.1,91.018 31.294,91.497 32.727,91.497 C 34.16,91.497 35.354,91.018 36.31,90.065 L 52.554,73.817 C 53.509,72.862 54.703,72.862 55.658,73.817 L 71.902,90.065 C 72.859,91.018 74.053,91.497 75.486,91.497 C 76.919,91.497 78.112,91.018 79.069,90.065 L 87.669,81.462 C 88.626,80.508 89.102,79.315 89.102,77.879 C 89.102,76.443 88.626,75.249 87.669,74.295 L 71.667,57.813 C 71.187,57.334 70.948,56.856 70.948,56.378 C 70.948,55.899 71.185,55.184 71.667,54.943 L 87.908,38.701 C 88.864,37.745 89.343,36.551 89.343,35.118 C 89.343,33.683 88.864,32.489 87.908,31.535 L 79.308,22.933 C 78.351,21.979 77.158,21.498 75.724,21.498 C 74.294,21.262 73.099,21.74 72.143,22.694 z" style="fill:url(#XMLID_7_)"/>
<linearGradient gradientTransform="translate(53.8711,21.5005)" gradientUnits="userSpaceOnUse" id="XMLID_8_" x1="-27.415001" x2="28.246599" y1="62.7686" y2="7.1069002">
<stop offset="0" style="stop-color:#c4c4c4;stop-opacity:1"/>
<stop offset="0.0056" style="stop-color:#c4c4c4;stop-opacity:1"/>
<stop offset="0.5" style="stop-color:#ffffff;stop-opacity:1"/>
<stop offset="1" style="stop-color:#c4c4c4;stop-opacity:1"/>
</linearGradient>
<path d="M 66.889,56.379 C 70.233,53.035 86.24,37.027 86.24,37.027 C 86.716,36.551 87.195,35.833 87.195,34.879 C 87.195,34.163 86.956,33.444 86.24,32.731 L 77.639,24.129 C 76.445,22.935 74.77,22.935 73.576,24.129 C 73.576,24.129 57.571,40.135 54.227,43.481 C 50.881,40.135 34.876,24.129 34.876,24.129 C 33.682,22.935 32.009,22.935 30.813,24.129 L 22.213,32.731 C 21.497,33.445 21.258,34.164 21.258,34.879 C 21.258,35.594 21.497,36.314 22.213,37.027 C 22.213,37.027 38.219,53.035 41.563,56.379 C 38.219,59.723 22.213,75.731 22.213,75.731 C 21.735,76.208 21.258,76.924 21.258,77.879 C 21.258,78.596 21.497,79.315 22.213,80.027 L 30.813,88.628 C 31.292,89.107 32.008,89.582 32.963,89.582 C 33.68,89.582 34.397,89.346 35.114,88.628 C 35.114,88.628 51.119,72.622 54.463,69.277 C 57.808,72.622 73.814,88.628 73.814,88.628 C 75.008,89.822 76.681,89.822 77.877,88.628 L 86.476,80.027 C 86.955,79.549 87.433,78.593 87.433,77.879 C 87.433,77.162 87.195,76.443 86.476,75.731 C 86.476,75.729 70.473,59.723 66.889,56.379 z" style="fill:url(#XMLID_8_)"/>
</g>
</g>
</g>
<g transform="matrix(0.6276151,0,0,0.6276151,36.000001,36.800998)">
<path d="M 79.4,66.9 C 78.7,68.8 77.8,70.7 76.5,72.4 C 74.9,74.6 72.8,76.4 70.3,77.9 C 65.4,80.8 59.6,81.7 54.2,80.2 C 51.4,79.5 48.9,78.3 46.7,76.6 C 44.5,75 42.7,72.9 41.2,70.4 C 38.3,65.5 37.4,59.7 38.8,54.3 C 39.5,51.6 40.7,49.1 42.4,46.8 C 44,44.6 46.1,42.8 48.6,41.3 C 53.3,38.5 59,37.7 64.2,38.9 L 95.2,12.5 C 95.1,12.4 95,12.3 94.9,12.2 C 88.7,7.5 81.7,4.2 74.1,2.2 C 59,-1.5 42.7,0.9 29.3,8.7 C 22.6,12.7 16.8,17.8 12.2,24.1 C 7.5,30.3 4.2,37.3 2.3,44.8 C -1.5,59.8 0.8,76.1 8.8,89.5 C 12.8,96.2 18,102 24.2,106.7 C 30.5,111.4 37.4,114.7 45,116.7 C 60,120.5 76.3,118.2 89.7,110.3 C 96.4,106.3 102.2,101.2 106.8,95 C 110.3,90.4 114.3,84.7 116.7,73.8 L 79.4,66.9 z" style="fill:#0"/>
<g>
<path d="M 63.3,33.7 L 87.5,13.8 C 69.3,2.3 46.8,3.2 31.7,13.9 L 45.5,37 C 51.5,33.4 56.5,31.9 63.3,33.7 z" style="fill:#ff5500"/>
<path d="M 37.6,43.9 C 39.8,41 42.5,38.7 45.4,37 L 31.7,13.9 C 25.8,17.4 20.5,22 16.1,27.8 C 11.8,33.6 8.8,40 7.1,46.6 L 33.1,53.3 C 34,50 35.5,46.8 37.6,43.9 z" style="fill:#ff7700"/>
<path d="M 33.1,53.3 L 7.1,46.6 C 3.7,60.4 5.8,75 13,87.2 L 36.1,73.6 C 32.5,67.5 31.4,60.2 33.1,53.3 z" style="fill:#ff9900"/>
<path d="M 43,81.4 C 40.1,79.2 37.8,76.5 36.1,73.6 L 13,87.2 C 16.5,93.1 21.1,98.4 27,102.8 C 32.8,107.1 39.2,110.2 45.8,111.8 L 52.4,85.9 C 49.2,85.1 46,83.6 43,81.4 z" style="fill:#ffaa00"/>
<path d="M 72.7,83 C 66.6,86.6 59.3,87.7 52.4,85.9 L 45.8,111.8 C 59.5,115.3 74.2,113.2 86.4,106 L 72.7,83 z" style="fill:#ffcc00"/>
<path d="M 82.7,72 C 82.7,72 81.9,74.3 80.6,76.1 C 78.4,79 75.7,81.3 72.8,83 L 86.5,106.1 C 92.4,102.6 97.5,99 101.9,93.2 C 104.6,89.6 110.7,77.3 110.7,77.3 L 82.7,72 z" style="fill:#ffee00"/>
</g>
    <polygon points="106.9,59.9 57.9,55.9 116,10.2 106.9,59.9 " style="fill:#00"  id="polygon106" transform="matrix(0.9331029,-0.3596097,0.3596097,0.9331029,-22.163193,21.446992)" />
    <polygon points="108,23.4 102.4,54.1 72.2,51.6 108,23.4 " style="fill:#ffee00"      id="polygon108"      transform="matrix(0.9331029,-0.3596097,0.3596097,0.9331029,-22.163193,21.446992)" />
    <rect height="119.5"
       style="fill:none"
       width="119.5"
       x="0"
       y="0"
       id="rect110" />
</g>
</svg>
