<?xml version="1.0" encoding="UTF-8"?>
<!DOCTYPE svg PUBLIC "-//W3C//DTD SVG 1.1 Tiny//EN" "http://www.w3.org/Graphics/SVG/1.1/DTD/svg11-tiny.dtd">
<svg xmlns="http://www.w3.org/2000/svg" baseProfile="tiny" height="111.801" version="1.0" viewBox="0 0 111.559 111.801" width="111.559">
	<defs display="inherit" id="defs5">
		<linearGradient id="gr_922" x1="0" y1="0" x2="0" y2="1">
			<stop offset="0" stop-color="#ff5500"/>
			<stop offset="0.5" stop-color="#ffff00"/>
			<stop offset="1" stop-color="#ff5500"/>
		</linearGradient>
        </defs>
<g>
<g>
<g>
<g>
<path d="M 2.149,57.096 C 2.149,87.434 26.753,111.801 56.854,111.801 C 86.955,111.801 111.558,87.194 111.558,57.096 C 111.558,26.758 86.954,2.389 56.854,2.389 C 26.756,2.151 2.149,26.758 2.149,57.096 z" style="fill-opacity:0.2;stroke-opacity:0.2"/>
</g>
</g>
<path d="M 0,54.706 C 0,85.045 24.604,109.412 54.705,109.412 C 84.809,109.412 109.409,84.805 109.409,54.706 C 109.409,24.607 85.043,0 54.705,0 C 24.604,0 0,24.607 0,54.706 z" style="fill:#006605"/>
<path d="M 54.705,0.956 C 25.083,0.956 0.955,25.083 0.955,54.706 C 0.955,84.329 25.083,108.693 54.943,108.693 C 84.565,108.693 108.931,84.566 108.931,54.706 C 108.934,24.845 84.565,0.956 54.705,0.956 z" style="fill:#095105"/>
<radialGradient cx="43.984402" cy="14.6943" fx="43.984402" fy="14.6943" gradientTransform="matrix(1,0,0,-1,10.7207,69.4004)" gradientUnits="userSpaceOnUse" id="XMLID_10_" r="51.123001">
<stop offset="0" style="stop-color:#ff9999;stop-opacity:1"/>
<stop offset="0.0056" style="stop-color:#99ffac;stop-opacity:1"/>
<stop offset="0.58429998" style="stop-color:#49e03d;stop-opacity:1"/>
<stop offset="1" style="stop-color:#028219;stop-opacity:1"/>
</radialGradient>
<circle cx="54.705002" cy="54.706001" r="51.123001" style="fill:url(#XMLID_10_)"/>
<g>
<g>
<path d="M 5.019,56.619 C 5.019,28.429 27.953,5.496 56.14,5.496 C 72.621,5.496 87.197,13.139 96.51,25.323 C 87.197,12.184 71.906,3.823 54.704,3.823 C 26.516,3.823 3.583,26.758 3.583,54.944 C 3.583,66.889 7.646,77.879 14.333,86.479 C 8.36,77.879 5.019,67.605 5.019,56.619 z" style="fill:#ffffff;fill-opacity:0.5;stroke-opacity:0.5"/>
</g>
</g>
<g style="fill-opacity:0.35;stroke-opacity:0.35">
<linearGradient gradientTransform="matrix(1,0,0,-1,-355.8398,-171.7988)" gradientUnits="userSpaceOnUse" id="XMLID_11_" x1="2.4189" x2="84.594704" y1="-193.18069" y2="-193.18069">
<stop offset="0" style="stop-color:#ffffff;stop-opacity:1"/>
<stop offset="0.0056" style="stop-color:#ffffff;stop-opacity:1"/>
<stop offset="1" style="stop-color:#aeffb4;stop-opacity:1"/>
</linearGradient>
<path d="M 13.141,30.579 C 22.935,35.119 36.788,37.746 52.079,37.746 C 69.757,37.746 85.521,34.163 95.317,28.429 C 87.194,14.333 72.145,5.018 54.705,5.018 C 36.549,5.018 20.784,15.29 13.141,30.579 z" style="fill:url(#XMLID_11_);fill-opacity:0.75;stroke-opacity:0.75"/>
</g>
<g>
<path d="M 85.05,29.485 L 82.358,25.864 C 67.717,39.37 56.114,58.053 50.186,68.916 L 37.949,41.883 L 31.575,45.036 C 40.536,66.148 50.885,87.389 51.562,88.771 L 51.598,88.851 C 60.372,64.184 70.65,44.625 85.05,29.485 z" style="fill:#060606;fill-opacity:0.2;stroke-opacity:0.2"/>
<path d="M 85.05,29.485 L 82.358,25.864 C 67.717,39.37 56.114,58.053 50.186,68.916 L 37.949,41.883 L 31.575,45.036 C 40.536,66.148 50.885,87.389 51.562,88.771 L 51.598,88.851 C 60.372,64.184 70.65,44.625 85.05,29.485 z" style="fill:none;fill-opacity:0.2;stroke:#020202;stroke-width:3;stroke-linecap:square;stroke-linejoin:round;stroke-opacity:0.2"/>
</g>
<linearGradient gradientTransform="matrix(1,0,0,-1,10.7207,69.4004)" gradientUnits="userSpaceOnUse" id="XMLID_12_" x1="22.9189" x2="69.791603" y1="-2.4912" y2="44.381599">
<stop offset="0" style="stop-color:#c6c6c6;stop-opacity:1"/>
<stop offset="0.5" style="stop-color:#ffffff;stop-opacity:1"/>
<stop offset="1" style="stop-color:#c6c6c6;stop-opacity:1"/>
</linearGradient>
<path d="M 83.05,28.485 L 80.358,24.864 C 65.717,38.37 54.114,57.053 48.186,67.916 L 35.949,40.883 L 29.575,44.036 C 38.536,65.148 48.885,86.389 49.562,87.771 L 49.598,87.851 C 58.372,63.184 68.65,43.625 83.05,28.485 z" style="fill:url(#XMLID_12_);stroke:#0a4404;stroke-width:3;stroke-linecap:square;stroke-linejoin:round"/>
</g>
</g>
<g transform="matrix(0.6276151,0,0,0.6276151,36.000001,36.801001)">
<path d="M 79.4,66.9 C 78.7,68.8 77.8,70.7 76.5,72.4 C 74.9,74.6 72.8,76.4 70.3,77.9 C 65.4,80.8 59.6,81.7 54.2,80.2 C 51.4,79.5 48.9,78.3 46.7,76.6 C 44.5,75 42.7,72.9 41.2,70.4 C 38.3,65.5 37.4,59.7 38.8,54.3 C 39.5,51.6 40.7,49.1 42.4,46.8 C 44,44.6 46.1,42.8 48.6,41.3 C 53.3,38.5 59,37.7 64.2,38.9 L 95.2,12.5 C 95.1,12.4 95,12.3 94.9,12.2 C 88.7,7.5 81.7,4.2 74.1,2.2 C 59,-1.5 42.7,0.9 29.3,8.7 C 22.6,12.7 16.8,17.8 12.2,24.1 C 7.5,30.3 4.2,37.3 2.3,44.8 C -1.5,59.8 0.8,76.1 8.8,89.5 C 12.8,96.2 18,102 24.2,106.7 C 30.5,111.4 37.4,114.7 45,116.7 C 60,120.5 76.3,118.2 89.7,110.3 C 96.4,106.3 102.2,101.2 106.8,95 C 110.3,90.4 114.3,84.7 116.7,73.8 L 79.4,66.9 z" style="fill:#0"/>
<g>
<path d="M 63.3,33.7 L 87.5,13.8 C 69.3,2.3 46.8,3.2 31.7,13.9 L 45.5,37 C 51.5,33.4 56.5,31.9 63.3,33.7 z" style="fill:#ff5500"/>
<path d="M 37.6,43.9 C 39.8,41 42.5,38.7 45.4,37 L 31.7,13.9 C 25.8,17.4 20.5,22 16.1,27.8 C 11.8,33.6 8.8,40 7.1,46.6 L 33.1,53.3 C 34,50 35.5,46.8 37.6,43.9 z" style="fill:#ff7700"/>
<path d="M 33.1,53.3 L 7.1,46.6 C 3.7,60.4 5.8,75 13,87.2 L 36.1,73.6 C 32.5,67.5 31.4,60.2 33.1,53.3 z" style="fill:#ff9900"/>
<path d="M 43,81.4 C 40.1,79.2 37.8,76.5 36.1,73.6 L 13,87.2 C 16.5,93.1 21.1,98.4 27,102.8 C 32.8,107.1 39.2,110.2 45.8,111.8 L 52.4,85.9 C 49.2,85.1 46,83.6 43,81.4 z" style="fill:#ffaa00"/>
<path d="M 72.7,83 C 66.6,86.6 59.3,87.7 52.4,85.9 L 45.8,111.8 C 59.5,115.3 74.2,113.2 86.4,106 L 72.7,83 z" style="fill:#ffcc00"/>
<path d="M 82.7,72 C 82.7,72 81.9,74.3 80.6,76.1 C 78.4,79 75.7,81.3 72.8,83 L 86.5,106.1 C 92.4,102.6 97.5,99 101.9,93.2 C 104.6,89.6 110.7,77.3 110.7,77.3 L 82.7,72 z" style="fill:#ffee00"/>
</g>
    <polygon points="106.9,59.9 57.9,55.9 116,10.2 106.9,59.9 " id="polygon106" transform="matrix(0.9331029,-0.3596097,0.3596097,0.9331029,-22.163193,21.446992)" />
    <polygon points="108,23.4 102.4,54.1 72.2,51.6 108,23.4 " style="fill:#ffee00"      id="polygon108"      transform="matrix(0.9331029,-0.3596097,0.3596097,0.9331029,-22.163193,21.446992)" />
    <rect height="119.5"
       style="fill:none"
       width="119.5"
       x="0"
       y="0"
       id="rect110" />
</g>
</svg>
